<svg width="30" height="30" fill="none" xmlns="http://www.w3.org/2000/svg"><g clip-path="url(#clip0_2_13)"><path d="M.4 13.008l28.852-9.166a.573.573 0 01.727.698l-5.048 18.468a.573.573 0 01-.756.385L13.98 19.538a.574.574 0 01-.182-.962l7.996-7.245c.492-.445-.039-1.23-.635-.94L7.774 16.9a.572.572 0 01-.467.015l-6.95-2.83A.573.573 0 01.4 13.01zm16.038 1.562c.251-.218-.027-.61-.316-.446l-6.38 3.483a1.411 1.411 0 00-.65 1.644l1.971 6.633c.1.337.522.445.772.199l3.932-3.723a.318.318 0 00-.098-.518l-4.08-2.034a.36.36 0 01-.087-.584l4.936-4.654z" fill="#5E6976"/></g><defs><clipPath id="clip0_2_13"><path fill="#fff" d="M0 0h30v30H0z"/></clipPath></defs></svg>